<svg width="256" height="256" viewBox="0 0 256 256" fill="none" xmlns="http://www.w3.org/2000/svg">
<path d="M172.258 20L37.0226 34.1702L20 189.098L72.9593 242L229 229.719V60.6213L172.258 20Z" fill="white"/>
<path d="M244 170.459V116.811L244 116.799C244 116.772 244 116.744 244 116.717V64.0915C244 57.577 240.837 51.4696 235.519 47.7049L188.897 14.6989C185.219 12.095 180.772 10.8014 176.27 11.0247L34.2941 18.068C23.4553 18.6057 14.9835 27.6202 15.1603 38.4764C15.4579 56.7413 15.9035 88.2284 15.8502 110.152C15.7916 134.281 15.2321 167.36 15.0033 180.006C14.9218 184.51 16.3545 188.884 19.0654 192.47L52.735 237.01C56.7855 242.368 63.2515 245.334 69.9339 244.97C105.963 243.008 133.785 242.12 163.296 241.177C182.219 240.572 201.836 239.945 224.755 238.999C235.507 238.556 244 229.71 244 218.957V170.564C244 170.529 244 170.494 244 170.459ZM218.89 132.461V156.009C218.89 157.366 217.814 158.495 216.437 158.549L163.552 160.649C162.094 160.707 160.895 159.545 160.895 158.109V134.561C160.895 133.204 161.971 132.075 163.348 132.021L216.233 129.921C217.691 129.863 218.89 131.025 218.89 132.461ZM163.348 185.763L216.233 183.663C217.691 183.605 218.89 184.768 218.89 186.204V211.637C218.89 212.994 217.814 214.123 216.437 214.177L163.552 216.277C162.094 216.335 160.895 215.172 160.895 213.736V188.304C160.895 186.946 161.971 185.818 163.348 185.763ZM135.785 135.761V159.309C135.785 160.666 134.71 161.795 133.332 161.849L80.4474 163.949C78.9895 164.007 77.7906 162.845 77.7906 161.409V137.861C77.7906 136.504 78.8662 135.375 80.2437 135.321L133.128 133.221C134.586 133.163 135.785 134.325 135.785 135.761ZM80.2437 189.063L133.128 186.963C134.586 186.905 135.785 188.068 135.785 189.504V214.936C135.785 216.294 134.71 217.423 133.332 217.477L80.4474 219.577C78.9895 219.635 77.7906 218.472 77.7906 217.036V191.604C77.7906 190.246 78.8662 189.117 80.2437 189.063ZM133.332 108.107L80.4474 110.207C78.9895 110.265 77.7906 109.103 77.7906 107.667V81.2908C77.7906 79.933 78.8662 78.8047 80.2437 78.75L133.128 76.6501C134.586 76.5922 135.785 77.7548 135.785 79.1908V105.567C135.785 106.924 134.71 108.053 133.332 108.107ZM178.645 38.1867L194.094 49.1239L74.3055 53.8805C71.5742 53.989 68.9166 52.9895 66.9373 51.1122L57.3717 42.0396L172.292 36.3385C174.558 36.2261 176.796 36.8774 178.645 38.1867ZM163.348 75.4501L216.233 73.3501C217.691 73.2922 218.89 74.4548 218.89 75.8908V102.267C218.89 103.624 217.814 104.753 216.437 104.807L163.552 106.907C162.094 106.965 160.895 105.803 160.895 104.367V77.9908C160.895 76.6331 161.971 75.5048 163.348 75.4501Z" fill="black" stroke="white" stroke-width="10"/>
</svg>
