<svg width="256" height="256" viewBox="0 0 256 256" fill="none" xmlns="http://www.w3.org/2000/svg">
<path d="M152 71L80.5 78.5L71.5 160.5L99.5 188.5L182 182V92.5L152 71Z" fill="white"/>
<mask id="path-2-outside-1_27_5" maskUnits="userSpaceOnUse" x="7" y="64.0638" width="243" height="129" fill="black">
<rect fill="white" x="7" y="64.0638" width="243" height="129"/>
<path fill-rule="evenodd" clip-rule="evenodd" d="M153.919 69.0736C155.71 68.9846 157.48 69.5003 158.943 70.5379L183.627 88.0413C185.743 89.5414 187 91.9739 187 94.5672V122.481C187 122.495 187 122.51 187 122.525V150.981C187 150.995 187 151.01 187 151.025V176.694C187 180.973 183.624 184.497 179.349 184.673C148.391 185.953 128.655 186.134 97.3436 187.841C94.6769 187.987 92.1021 186.8 90.4933 184.669L72.6668 161.049C71.587 159.618 71.0188 157.878 71.0512 156.086C71.1723 149.381 71.4689 131.819 71.5 119C71.5283 107.346 71.2919 90.6251 71.1344 80.94C71.0641 76.6177 74.4315 73.0233 78.7491 72.8088L153.919 69.0736ZM175.159 147.309C177.305 147.223 179 145.459 179 143.312V130.825C179 128.553 177.111 126.737 174.841 126.828L146.841 127.941C144.695 128.027 143 129.791 143 131.938V144.425C143 146.697 144.889 148.513 147.159 148.422L175.159 147.309ZM143 160.438C143 158.291 144.695 156.527 146.841 156.441L174.841 155.328C177.111 155.237 179 157.053 179 159.325V172.812C179 174.959 177.305 176.723 175.159 176.809L147.159 177.922C144.889 178.013 143 176.197 143 173.925V160.438ZM131.159 149.059C133.305 148.973 135 147.209 135 145.062V132.575C135 130.303 133.111 128.487 130.841 128.578L102.841 129.691C100.695 129.777 99 131.541 99 133.688V146.175C99 148.447 100.889 150.263 103.159 150.172L131.159 149.059ZM99 162.188C99 160.041 100.695 158.277 102.841 158.191L130.841 157.078C133.111 156.987 135 158.803 135 161.075V174.562C135 176.709 133.305 178.473 131.159 178.559L103.159 179.672C100.889 179.763 99 177.947 99 175.675V162.188ZM99 117.675C99 119.947 100.889 121.763 103.159 121.672L131.159 120.559C133.305 120.473 135 118.709 135 116.562V102.575C135 100.303 133.111 98.4874 130.841 98.5777L102.841 99.6913C100.695 99.7766 99 101.541 99 103.688V117.675ZM94.0792 89.608C95.6458 91.0963 97.7479 91.8875 99.9071 91.8017L166.706 89.1449C168.136 89.088 168.682 87.2506 167.514 86.4225L156.574 78.6655C155.111 77.6279 153.342 77.1122 151.55 77.2012L88.0226 80.3579C86.7052 80.4233 86.1076 82.035 87.0639 82.9435L94.0792 89.608ZM179 100.825C179 98.553 177.111 96.7374 174.841 96.8277L146.841 97.9413C144.695 98.0266 143 99.7909 143 101.938V115.925C143 118.197 144.889 120.013 147.159 119.922L175.159 118.809C177.305 118.723 179 116.959 179 114.812V100.825Z"/>
<path d="M228.009 166.405C228.009 173.007 225.978 177.641 221.915 180.307C218.745 182.442 213.761 183.736 206.961 184.187C203.727 184.402 201.095 181.742 201.095 178.501C201.095 175.327 203.642 172.811 206.753 172.184C208.88 171.755 210.638 171.118 211.5 170.303C213.066 168.864 216 166.803 215.5 161.803V141.998C215.5 138.147 216.748 135.058 219.245 132.73C221.718 130.464 225.274 128.96 229.913 128.218C230.129 128.184 230.29 127.998 230.29 127.779C230.29 127.561 230.127 127.375 229.911 127.34C220.629 125.858 215.829 121.188 215.512 113.331C215.501 113.063 215.51 112.799 215.531 112.531C215.699 110.354 216.5 99.6463 216.5 92.8027C216.5 85.4642 214.727 83.0013 213.109 82.2819C211.527 81.579 209.58 82.0459 207.885 81.6954C207.285 81.5712 206.61 81.4416 205.893 81.3205C203.241 80.873 201.095 78.6632 201.095 75.9734C201.095 73.2267 203.325 70.9787 206.068 71.1268C213.365 71.5208 218.669 72.8327 221.979 75.0625C225.999 77.7285 228.009 82.3411 228.009 88.9004L227 109.303V109.811C227 113.704 229.412 115.673 232.135 118.1C234.273 120.005 235.8 120.784 237.213 121.035C241.061 121.72 244.259 123.807 244.259 127.716C244.259 131.625 241.045 134.626 237.225 135.452C235.22 135.886 233.523 136.534 232.135 137.396C229.384 139.132 228.009 142.094 228.009 146.283V166.405Z"/>
<path d="M28.25 166.405C28.25 173.007 30.2812 177.641 34.3438 180.307C37.5134 182.442 42.4983 183.736 49.2982 184.187C52.532 184.402 55.1641 181.742 55.1641 178.501C55.1641 175.327 52.6165 172.811 49.5054 172.184C47.3789 171.755 45.6207 171.118 44.7588 170.303C43.193 168.864 40.2588 166.803 40.7588 161.803V141.998C40.7588 138.147 39.5104 135.058 37.0137 132.73C34.5411 130.464 30.985 128.96 26.3454 128.218C26.1294 128.184 25.9688 127.998 25.9688 127.779C25.9688 127.561 26.1321 127.375 26.3482 127.34C35.6299 125.858 40.4293 121.188 40.7465 113.331C40.7573 113.063 40.7486 112.799 40.7279 112.531C40.5594 110.354 39.7588 99.6463 39.7588 92.8027C39.7588 85.4642 41.5318 83.0013 43.1502 82.2819C44.7314 81.579 46.679 82.0459 48.3736 81.6954C48.9737 81.5712 49.6483 81.4416 50.3657 81.3205C53.018 80.873 55.1641 78.6632 55.1641 75.9734C55.1641 73.2267 52.9337 70.9787 50.1909 71.1268C42.8937 71.5208 37.5902 72.8327 34.2803 75.0625C30.2601 77.7285 28.25 82.3411 28.25 88.9004L29.2588 109.303V109.811C29.2588 113.704 26.8466 115.673 24.124 118.1C21.9861 120.005 20.4587 120.784 19.046 121.035C15.1976 121.72 12 123.807 12 127.716C12 131.625 15.2136 134.626 19.0341 135.452C21.0391 135.886 22.7358 136.534 24.124 137.396C26.8747 139.132 28.25 142.094 28.25 146.283V166.405Z"/>
</mask>
<path fill-rule="evenodd" clip-rule="evenodd" d="M153.919 69.0736C155.71 68.9846 157.48 69.5003 158.943 70.5379L183.627 88.0413C185.743 89.5414 187 91.9739 187 94.5672V122.481C187 122.495 187 122.51 187 122.525V150.981C187 150.995 187 151.01 187 151.025V176.694C187 180.973 183.624 184.497 179.349 184.673C148.391 185.953 128.655 186.134 97.3436 187.841C94.6769 187.987 92.1021 186.8 90.4933 184.669L72.6668 161.049C71.587 159.618 71.0188 157.878 71.0512 156.086C71.1723 149.381 71.4689 131.819 71.5 119C71.5283 107.346 71.2919 90.6251 71.1344 80.94C71.0641 76.6177 74.4315 73.0233 78.7491 72.8088L153.919 69.0736ZM175.159 147.309C177.305 147.223 179 145.459 179 143.312V130.825C179 128.553 177.111 126.737 174.841 126.828L146.841 127.941C144.695 128.027 143 129.791 143 131.938V144.425C143 146.697 144.889 148.513 147.159 148.422L175.159 147.309ZM143 160.438C143 158.291 144.695 156.527 146.841 156.441L174.841 155.328C177.111 155.237 179 157.053 179 159.325V172.812C179 174.959 177.305 176.723 175.159 176.809L147.159 177.922C144.889 178.013 143 176.197 143 173.925V160.438ZM131.159 149.059C133.305 148.973 135 147.209 135 145.062V132.575C135 130.303 133.111 128.487 130.841 128.578L102.841 129.691C100.695 129.777 99 131.541 99 133.688V146.175C99 148.447 100.889 150.263 103.159 150.172L131.159 149.059ZM99 162.188C99 160.041 100.695 158.277 102.841 158.191L130.841 157.078C133.111 156.987 135 158.803 135 161.075V174.562C135 176.709 133.305 178.473 131.159 178.559L103.159 179.672C100.889 179.763 99 177.947 99 175.675V162.188ZM99 117.675C99 119.947 100.889 121.763 103.159 121.672L131.159 120.559C133.305 120.473 135 118.709 135 116.562V102.575C135 100.303 133.111 98.4874 130.841 98.5777L102.841 99.6913C100.695 99.7766 99 101.541 99 103.688V117.675ZM94.0792 89.608C95.6458 91.0963 97.7479 91.8875 99.9071 91.8017L166.706 89.1449C168.136 89.088 168.682 87.2506 167.514 86.4225L156.574 78.6655C155.111 77.6279 153.342 77.1122 151.55 77.2012L88.0226 80.3579C86.7052 80.4233 86.1076 82.035 87.0639 82.9435L94.0792 89.608ZM179 100.825C179 98.553 177.111 96.7374 174.841 96.8277L146.841 97.9413C144.695 98.0266 143 99.7909 143 101.938V115.925C143 118.197 144.889 120.013 147.159 119.922L175.159 118.809C177.305 118.723 179 116.959 179 114.812V100.825Z" fill="black"/>
<path d="M228.009 166.405C228.009 173.007 225.978 177.641 221.915 180.307C218.745 182.442 213.761 183.736 206.961 184.187C203.727 184.402 201.095 181.742 201.095 178.501C201.095 175.327 203.642 172.811 206.753 172.184C208.88 171.755 210.638 171.118 211.5 170.303C213.066 168.864 216 166.803 215.5 161.803V141.998C215.5 138.147 216.748 135.058 219.245 132.73C221.718 130.464 225.274 128.96 229.913 128.218C230.129 128.184 230.29 127.998 230.29 127.779C230.29 127.561 230.127 127.375 229.911 127.34C220.629 125.858 215.829 121.188 215.512 113.331C215.501 113.063 215.51 112.799 215.531 112.531C215.699 110.354 216.5 99.6463 216.5 92.8027C216.5 85.4642 214.727 83.0013 213.109 82.2819C211.527 81.579 209.58 82.0459 207.885 81.6954C207.285 81.5712 206.61 81.4416 205.893 81.3205C203.241 80.873 201.095 78.6632 201.095 75.9734C201.095 73.2267 203.325 70.9787 206.068 71.1268C213.365 71.5208 218.669 72.8327 221.979 75.0625C225.999 77.7285 228.009 82.3411 228.009 88.9004L227 109.303V109.811C227 113.704 229.412 115.673 232.135 118.1C234.273 120.005 235.8 120.784 237.213 121.035C241.061 121.72 244.259 123.807 244.259 127.716C244.259 131.625 241.045 134.626 237.225 135.452C235.22 135.886 233.523 136.534 232.135 137.396C229.384 139.132 228.009 142.094 228.009 146.283V166.405Z" fill="black"/>
<path d="M28.25 166.405C28.25 173.007 30.2812 177.641 34.3438 180.307C37.5134 182.442 42.4983 183.736 49.2982 184.187C52.532 184.402 55.1641 181.742 55.1641 178.501C55.1641 175.327 52.6165 172.811 49.5054 172.184C47.3789 171.755 45.6207 171.118 44.7588 170.303C43.193 168.864 40.2588 166.803 40.7588 161.803V141.998C40.7588 138.147 39.5104 135.058 37.0137 132.73C34.5411 130.464 30.985 128.96 26.3454 128.218C26.1294 128.184 25.9688 127.998 25.9688 127.779C25.9688 127.561 26.1321 127.375 26.3482 127.34C35.6299 125.858 40.4293 121.188 40.7465 113.331C40.7573 113.063 40.7486 112.799 40.7279 112.531C40.5594 110.354 39.7588 99.6463 39.7588 92.8027C39.7588 85.4642 41.5318 83.0013 43.1502 82.2819C44.7314 81.579 46.679 82.0459 48.3736 81.6954C48.9737 81.5712 49.6483 81.4416 50.3657 81.3205C53.018 80.873 55.1641 78.6632 55.1641 75.9734C55.1641 73.2267 52.9337 70.9787 50.1909 71.1268C42.8937 71.5208 37.5902 72.8327 34.2803 75.0625C30.2601 77.7285 28.25 82.3411 28.25 88.9004L29.2588 109.303V109.811C29.2588 113.704 26.8466 115.673 24.124 118.1C21.9861 120.005 20.4587 120.784 19.046 121.035C15.1976 121.72 12 123.807 12 127.716C12 131.625 15.2136 134.626 19.0341 135.452C21.0391 135.886 22.7358 136.534 24.124 137.396C26.8747 139.132 28.25 142.094 28.25 146.283V166.405Z" fill="black"/>
<path fill-rule="evenodd" clip-rule="evenodd" d="M153.919 69.0736C155.71 68.9846 157.48 69.5003 158.943 70.5379L183.627 88.0413C185.743 89.5414 187 91.9739 187 94.5672V122.481C187 122.495 187 122.51 187 122.525V150.981C187 150.995 187 151.01 187 151.025V176.694C187 180.973 183.624 184.497 179.349 184.673C148.391 185.953 128.655 186.134 97.3436 187.841C94.6769 187.987 92.1021 186.8 90.4933 184.669L72.6668 161.049C71.587 159.618 71.0188 157.878 71.0512 156.086C71.1723 149.381 71.4689 131.819 71.5 119C71.5283 107.346 71.2919 90.6251 71.1344 80.94C71.0641 76.6177 74.4315 73.0233 78.7491 72.8088L153.919 69.0736ZM175.159 147.309C177.305 147.223 179 145.459 179 143.312V130.825C179 128.553 177.111 126.737 174.841 126.828L146.841 127.941C144.695 128.027 143 129.791 143 131.938V144.425C143 146.697 144.889 148.513 147.159 148.422L175.159 147.309ZM143 160.438C143 158.291 144.695 156.527 146.841 156.441L174.841 155.328C177.111 155.237 179 157.053 179 159.325V172.812C179 174.959 177.305 176.723 175.159 176.809L147.159 177.922C144.889 178.013 143 176.197 143 173.925V160.438ZM131.159 149.059C133.305 148.973 135 147.209 135 145.062V132.575C135 130.303 133.111 128.487 130.841 128.578L102.841 129.691C100.695 129.777 99 131.541 99 133.688V146.175C99 148.447 100.889 150.263 103.159 150.172L131.159 149.059ZM99 162.188C99 160.041 100.695 158.277 102.841 158.191L130.841 157.078C133.111 156.987 135 158.803 135 161.075V174.562C135 176.709 133.305 178.473 131.159 178.559L103.159 179.672C100.889 179.763 99 177.947 99 175.675V162.188ZM99 117.675C99 119.947 100.889 121.763 103.159 121.672L131.159 120.559C133.305 120.473 135 118.709 135 116.562V102.575C135 100.303 133.111 98.4874 130.841 98.5777L102.841 99.6913C100.695 99.7766 99 101.541 99 103.688V117.675ZM94.0792 89.608C95.6458 91.0963 97.7479 91.8875 99.9071 91.8017L166.706 89.1449C168.136 89.088 168.682 87.2506 167.514 86.4225L156.574 78.6655C155.111 77.6279 153.342 77.1122 151.55 77.2012L88.0226 80.3579C86.7052 80.4233 86.1076 82.035 87.0639 82.9435L94.0792 89.608ZM179 100.825C179 98.553 177.111 96.7374 174.841 96.8277L146.841 97.9413C144.695 98.0266 143 99.7909 143 101.938V115.925C143 118.197 144.889 120.013 147.159 119.922L175.159 118.809C177.305 118.723 179 116.959 179 114.812V100.825Z" stroke="white" stroke-width="10" mask="url(#path-2-outside-1_27_5)"/>
<path d="M228.009 166.405C228.009 173.007 225.978 177.641 221.915 180.307C218.745 182.442 213.761 183.736 206.961 184.187C203.727 184.402 201.095 181.742 201.095 178.501C201.095 175.327 203.642 172.811 206.753 172.184C208.88 171.755 210.638 171.118 211.5 170.303C213.066 168.864 216 166.803 215.5 161.803V141.998C215.5 138.147 216.748 135.058 219.245 132.73C221.718 130.464 225.274 128.96 229.913 128.218C230.129 128.184 230.29 127.998 230.29 127.779C230.29 127.561 230.127 127.375 229.911 127.34C220.629 125.858 215.829 121.188 215.512 113.331C215.501 113.063 215.51 112.799 215.531 112.531C215.699 110.354 216.5 99.6463 216.5 92.8027C216.5 85.4642 214.727 83.0013 213.109 82.2819C211.527 81.579 209.58 82.0459 207.885 81.6954C207.285 81.5712 206.61 81.4416 205.893 81.3205C203.241 80.873 201.095 78.6632 201.095 75.9734C201.095 73.2267 203.325 70.9787 206.068 71.1268C213.365 71.5208 218.669 72.8327 221.979 75.0625C225.999 77.7285 228.009 82.3411 228.009 88.9004L227 109.303V109.811C227 113.704 229.412 115.673 232.135 118.1C234.273 120.005 235.8 120.784 237.213 121.035C241.061 121.72 244.259 123.807 244.259 127.716C244.259 131.625 241.045 134.626 237.225 135.452C235.22 135.886 233.523 136.534 232.135 137.396C229.384 139.132 228.009 142.094 228.009 146.283V166.405Z" stroke="white" stroke-width="10" mask="url(#path-2-outside-1_27_5)"/>
<path d="M28.25 166.405C28.25 173.007 30.2812 177.641 34.3438 180.307C37.5134 182.442 42.4983 183.736 49.2982 184.187C52.532 184.402 55.1641 181.742 55.1641 178.501C55.1641 175.327 52.6165 172.811 49.5054 172.184C47.3789 171.755 45.6207 171.118 44.7588 170.303C43.193 168.864 40.2588 166.803 40.7588 161.803V141.998C40.7588 138.147 39.5104 135.058 37.0137 132.73C34.5411 130.464 30.985 128.96 26.3454 128.218C26.1294 128.184 25.9688 127.998 25.9688 127.779C25.9688 127.561 26.1321 127.375 26.3482 127.34C35.6299 125.858 40.4293 121.188 40.7465 113.331C40.7573 113.063 40.7486 112.799 40.7279 112.531C40.5594 110.354 39.7588 99.6463 39.7588 92.8027C39.7588 85.4642 41.5318 83.0013 43.1502 82.2819C44.7314 81.579 46.679 82.0459 48.3736 81.6954C48.9737 81.5712 49.6483 81.4416 50.3657 81.3205C53.018 80.873 55.1641 78.6632 55.1641 75.9734C55.1641 73.2267 52.9337 70.9787 50.1909 71.1268C42.8937 71.5208 37.5902 72.8327 34.2803 75.0625C30.2601 77.7285 28.25 82.3411 28.25 88.9004L29.2588 109.303V109.811C29.2588 113.704 26.8466 115.673 24.124 118.1C21.9861 120.005 20.4587 120.784 19.046 121.035C15.1976 121.72 12 123.807 12 127.716C12 131.625 15.2136 134.626 19.0341 135.452C21.0391 135.886 22.7358 136.534 24.124 137.396C26.8747 139.132 28.25 142.094 28.25 146.283V166.405Z" stroke="white" stroke-width="10" mask="url(#path-2-outside-1_27_5)"/>
</svg>
